<svg xmlns="http://www.w3.org/2000/svg" viewBox="0 0 127.12 43.5"><defs><style>.cls-1{fill:#f78e42;}.cls-2{fill:#1e1c4f;}.cls-3{fill:#fff;}</style></defs><g id="Layer_2" data-name="Layer 2"><g id="Layer_1-2" data-name="Layer 1"><path class="cls-1" d="M14.87,38V23.15a13.44,13.44,0,0,0,12-13.35,24.77,24.77,0,0,0-1.92-8.73A1.69,1.69,0,0,0,23.36,0H3.49A1.71,1.71,0,0,0,1.9,1.07a24.23,24.23,0,0,0-1.9,9A13.41,13.41,0,0,0,12,23.15V38c-4.56.37-8.06,2.4-8.06,3.42s4.26,2,9.51,2,9.52-.91,9.52-2S19.44,38.41,14.87,38ZM6.44,6.34A8.33,8.33,0,0,0,3.1,7.48,24.74,24.74,0,0,1,4.31,2.9H22.54A21.17,21.17,0,0,1,24,9.8a10.42,10.42,0,0,1-.1,1.38,4.85,4.85,0,0,0-2.86.11c-2.63.93-4.34,1.53-7,.48S9.64,6,6.44,6.34Z"/><path class="cls-1" d="M22.31,10a5.42,5.42,0,0,0-1.64.32c-2.31.83-5.21,1.77-7.21-.28A4.33,4.33,0,0,1,12.13,7c.21-2.06,3.27-1.13,4.35-.49,1.39.81,2.48,2,3.88,2.83A7.47,7.47,0,0,0,22.31,10Z"/><path class="cls-2" d="M40.7,9.79H36.18V7h12V9.79h-4.5V35h-3Z"/><path class="cls-2" d="M58.78,29.23c0,2.75,0,4.74,0,5.75H56a20.43,20.43,0,0,1-.12-2.21A3.55,3.55,0,0,1,52,35.31c-1.75,0-4.14-.68-4.14-5.43V13.69h3V29.1c0,2.52.68,3.51,2.26,3.51s2.68-.9,2.68-5v-14h3Z"/><path class="cls-2" d="M64.29,28.65v.93c0,2.07.82,3.17,2.34,3.17s2.26-1,2.26-3-.61-3-3-4.65c-2.86-1.87-4.18-3.37-4.18-6.33,0-3.14,1.52-5.45,5-5.45,3.77,0,4.94,2.4,4.94,5.6v1h-2.9V18.75c0-1.81-.53-2.84-2.07-2.84s-2,1-2,2.63.52,2.39,2.65,3.81c3.13,2,4.61,3.53,4.61,7,0,3.86-1.75,5.92-5.4,5.92-4.17,0-5.23-2.77-5.23-5.7v-1Z"/><path class="cls-2" d="M84.88,28.25v.3c0,3.67-.93,6.76-5.29,6.76-4.16,0-5.17-2.88-5.17-7.19V19.86c0-3.61,1.31-6.51,5.35-6.51,4.36,0,5.11,3.2,5.11,6v.86H81.93v-.74c0-1.93-.32-3.6-2.22-3.6-1.65,0-2.3,1.24-2.3,3.76v9.14c0,1.93.37,3.94,2.26,3.94,1.68,0,2.26-1.13,2.26-3.82v-.68Z"/><path class="cls-2" d="M97.59,31.29c0,1.46,0,3.06.08,3.69H94.91a12.58,12.58,0,0,1-.22-1.73,3.44,3.44,0,0,1-3.49,2.06c-3.07,0-4.3-2.73-4.3-6v-.38c0-4.82,3-6.52,6.79-6.52h.92V19c0-1.93-.33-3.15-2-3.15s-2.1,1.27-2.1,2.93v.57H87.57v-.53c0-3,1.17-5.5,5.14-5.5,3.72,0,4.88,2.32,4.88,5.47Zm-2.92-6.52h-1c-2.41,0-3.85,1-3.85,4.09v.36c0,1.9.59,3.43,2.26,3.43,2,0,2.63-1.57,2.63-4.75Z"/><path class="cls-2" d="M101.54,20.17c0-4.27,0-5.43,0-6.48h2.83a17.65,17.65,0,0,1,.12,2.13,3.84,3.84,0,0,1,3.9-2.47c2.34,0,4.2,1.33,4.2,5.24V35h-3V19.18c0-2.06-.69-3.11-2.24-3.11-1.78,0-2.83.89-2.83,4.92V35h-3Z"/><path class="cls-2" d="M118,13.69c1.41,7.74,2.75,15.1,2.94,17.57H121c.42-3.44,1.84-10.27,3.13-17.57h3l-4.74,22.43c-1.26,5.93-3,6.34-5.38,6.34a8.86,8.86,0,0,1-1.56-.17l0-2.73a6,6,0,0,0,1.18.13c1.55,0,2.21-.67,2.8-3.92l-4.68-22.08Z"/><path class="cls-3" d="M8.18,15.1a1.61,1.61,0,1,0,1.61,1.61A1.61,1.61,0,0,0,8.18,15.1Z"/><path class="cls-3" d="M13.43,15.1A1.61,1.61,0,1,0,15,16.71,1.61,1.61,0,0,0,13.43,15.1Z"/><path class="cls-3" d="M18.68,15.1a1.61,1.61,0,1,0,1.61,1.61A1.61,1.61,0,0,0,18.68,15.1Z"/></g></g></svg>